<?xml version="1.0" encoding="UTF-8" standalone="no"?>
<!DOCTYPE svg PUBLIC "-//W3C//DTD SVG 1.1//EN" "http://www.w3.org/Graphics/SVG/1.1/DTD/svg11.dtd">
<svg width="100%" height="100%" viewBox="0 0 512 512" version="1.1" xmlns="http://www.w3.org/2000/svg" xmlns:xlink="http://www.w3.org/1999/xlink" xml:space="preserve" xmlns:serif="http://www.serif.com/" style="fill-rule:evenodd;clip-rule:evenodd;stroke-linejoin:round;stroke-miterlimit:2;">
    <path d="M480,128C480,92.891 451.109,64 416,64L400,64L400,48.45C400,39.84 393.38,32.45 384.77,32.02C384.514,32.008 384.257,32.001 384,32.001C375.223,32.001 368.001,39.223 368,48L368,64L144,64L144,48.45C144,39.84 137.38,32.45 128.77,32.02C128.514,32.008 128.257,32.001 128,32.001C119.223,32.001 112.001,39.223 112,48L112,64L96,64C60.891,64 32,92.891 32,128L32,140C32,142.194 33.806,144 36,144L476,144C478.194,144 480,142.194 480,140L480,128ZM32,416C32,451.109 60.891,480 96,480L416,480C451.109,480 480,451.109 480,416L480,179C480,177.354 478.646,176 477,176L35,176C33.354,176 32,177.354 32,179L32,416ZM376,208C389.166,208 400,218.834 400,232C400,245.166 389.166,256 376,256C362.834,256 352,245.166 352,232C352,218.834 362.834,208 376,208ZM376,288C389.166,288 400,298.834 400,312C400,325.166 389.166,336 376,336C362.834,336 352,325.166 352,312C352,298.834 362.834,288 376,288ZM296,208C309.166,208 320,218.834 320,232C320,245.166 309.166,256 296,256C282.834,256 272,245.166 272,232C272,218.834 282.834,208 296,208ZM296,288C309.166,288 320,298.834 320,312C320,325.166 309.166,336 296,336C282.834,336 272,325.166 272,312C272,298.834 282.834,288 296,288ZM296,368C309.166,368 320,378.834 320,392C320,405.166 309.166,416 296,416C282.834,416 272,405.166 272,392C272,378.834 282.834,368 296,368ZM216,288C229.166,288 240,298.834 240,312C240,325.166 229.166,336 216,336C202.834,336 192,325.166 192,312C192,298.834 202.834,288 216,288ZM216,368C229.166,368 240,378.834 240,392C240,405.166 229.166,416 216,416C202.834,416 192,405.166 192,392C192,378.834 202.834,368 216,368ZM136,288C149.166,288 160,298.834 160,312C160,325.166 149.166,336 136,336C122.834,336 112,325.166 112,312C112,298.834 122.834,288 136,288ZM136,368C149.166,368 160,378.834 160,392C160,405.166 149.166,416 136,416C122.834,416 112,405.166 112,392C112,378.834 122.834,368 136,368Z" style="fill:rgb(66,89,255);fill-rule:nonzero;"/>
</svg>
