<?xml version="1.0" standalone="no"?>
<!DOCTYPE svg PUBLIC "-//W3C//DTD SVG 20010904//EN"
 "http://www.w3.org/TR/2001/REC-SVG-20010904/DTD/svg10.dtd">
<svg version="1.0" xmlns="http://www.w3.org/2000/svg"
 width="700.000000pt" height="700.000000pt" viewBox="0 0 700.000000 700.000000"
 preserveAspectRatio="xMidYMid meet">
<metadata>
Created by potrace 1.14, written by Peter Selinger 2001-2017
</metadata>
<g transform="translate(0.000000,700.000000) scale(0.100000,-0.100000)"
fill="#000000" stroke="none">
<path d="M5200 6555 c-70 -21 -114 -56 -147 -118 -13 -24 -19 -67 -23 -172
l-5 -140 -1527 0 -1528 0 0 121 c0 173 -27 237 -120 288 -103 56 -227 21 -288
-83 -25 -43 -27 -55 -30 -186 l-4 -141 -131 1 c-212 1 -346 -27 -492 -103
-207 -108 -365 -302 -430 -528 -30 -102 -37 -168 -37 -317 -1 -89 3 -111 17
-127 18 -20 47 -20 3045 -20 3025 0 3027 0 3045 20 30 33 24 283 -10 414 -79
304 -327 554 -625 631 -90 23 -144 29 -302 29 l-138 1 0 121 c0 126 -8 167
-46 222 -47 70 -149 110 -224 87z"/>
<path d="M467 4591 c-6 -2 -16 -11 -21 -19 -11 -19 -13 -3239 -2 -3348 38
-401 374 -740 771 -781 86 -8 4454 -9 4548 -1 127 12 210 37 327 97 251 129
432 389 466 671 12 96 9 3343 -3 3365 -11 18 -72 19 -3042 19 -1667 1 -3037
-1 -3044 -3z m3683 -453 c86 -28 151 -87 193 -177 102 -217 -65 -466 -308
-458 -123 4 -235 80 -288 195 -34 73 -31 199 5 269 15 29 41 68 59 88 34 37
117 83 172 95 40 9 121 3 167 -12z m1127 -14 c254 -121 251 -476 -6 -596 -68
-32 -197 -31 -266 2 -162 79 -237 279 -161 433 82 167 270 238 433 161z
m-3297 -1085 c43 -15 51 -21 114 -84 124 -122 123 -317 -2 -448 -157 -164
-427 -117 -530 93 -35 72 -37 189 -4 262 73 163 253 238 422 177z m3322 -22
c57 -33 114 -97 141 -156 32 -69 29 -187 -5 -261 -75 -163 -267 -236 -429
-164 -147 66 -227 236 -182 387 61 205 294 300 475 194z m-2210 14 c64 -31
126 -94 157 -161 22 -46 26 -69 26 -140 0 -78 -3 -90 -35 -149 -58 -107 -161
-170 -283 -172 -127 -2 -240 69 -298 187 -63 127 -36 270 70 373 69 67 132 90
236 87 59 -2 92 -8 127 -25z m1091 0 c89 -41 169 -141 183 -227 11 -71 11 -89
-1 -140 -58 -251 -364 -342 -545 -163 -180 178 -105 470 140 550 46 15 171 4
223 -20z m-2191 -1094 c71 -32 133 -94 166 -166 21 -45 26 -70 26 -131 -1
-123 -58 -220 -167 -284 -57 -34 -76 -38 -162 -39 -249 -3 -406 279 -274 493
88 142 262 196 411 127z m1103 -3 c70 -35 137 -107 164 -177 24 -63 23 -181
-2 -240 -53 -124 -187 -209 -318 -202 -86 4 -149 33 -215 99 -71 71 -96 132
-96 229 1 241 252 396 467 291z m1037 21 c191 -56 285 -240 220 -429 -19 -54
-84 -133 -138 -166 -156 -97 -376 -32 -458 136 -38 78 -44 184 -15 261 59 154
237 244 391 198z"/>
</g>
</svg>
